# xmcd
#
# Track frame offsets:
#	150
#	14561
#	30252
#	43751
#	57361
#	71114
#	84334
#	98467
#	112446
#	125427
#	138556
#	152610
#	163428
#	178303
#	190496
#	204435
#	217363
#	231406
#	244888
#	259129
#
# Disc length: 3611
#
# Revision: 2
# Processed by: cddbd v1.5.1PL0 Copyright (c) Steve Scherf et al.
# Submitted via: audiograbber 1.83.01
# Normalized: r1:DSETVAR1
#
DISCID=360e1914
DTITLE=Various Artist - Down With The Blues 2
DYEAR=2003
DGENRE=Blues
TTITLE0=John Lee Hooker - Sally Mae
TTITLE1=Bessie Smith - Outside Of That
TTITLE2=Ma Rainey - Night Time Blues
TTITLE3=Leadbelly - Roberta
TTITLE4=Mississippi John Hurt - Avalon Blues
TTITLE5=Muddy Waters - Walkin' Blues
TTITLE6=John Lee Hooker - Boogie Chillen
TTITLE7=Kokomo Arnold - Backfence Picket Blues
TTITLE8=Billie Holiday - St. Louis Blues
TTITLE9=Leadbelly - My Baby Quit Me
TTITLE10=Big Joe Williams - Stepfather Blues
TTITLE11=Lightning Hopkins - Lightning Hopkins
TTITLE12=Billie Holiday - Georgia On My Mind
TTITLE13=Muddy Waters - I Can't Be Satisfied
TTITLE14=Blind Boy Fuller and Sonny Terry - Little Woman You're So Sweet
TTITLE15=Memphis Minnie - Joe Louis Strut
TTITLE16=Atrhur 'Big Boy' Crudup - Raised To My Hand
TTITLE17=Lightning Hopkins - Katy Mae
TTITLE18=John Lee Hooker - Hanery's Swing club
TTITLE19=Muddy Waters - Your Gonna Miss Me
EXTD=
EXTT0=
EXTT1=
EXTT2=
EXTT3=
EXTT4=
EXTT5=
EXTT6=
EXTT7=
EXTT8=
EXTT9=
EXTT10=
EXTT11=
EXTT12=
EXTT13=
EXTT14=
EXTT15=
EXTT16=
EXTT17=
EXTT18=
EXTT19=
PLAYORDER=
